<svg xmlns="http://www.w3.org/2000/svg" width="256" height="256" viewBox="0 0 36 36">
  <!-- Orange emoji from Unicode ðŸŠ -->
  <path fill="#F4900C" d="M24.09 16.749c-.436.831-1.215 2.384-1.68 2.614c-.584.289-1.122.145-1.584-.29c-.627-.59-.83-1.754-.549-2.538c.284-.794 1.137-2.225 1.578-2.515c.583-.383 1.121-.145 1.583.29c.627.588.933 1.61.652 2.439z"/>
  <path fill="#DD2E44" d="M31.874 16.169c0 7.011-5.882 12.695-13.134 12.695S5.606 23.18 5.606 16.169S11.488 3.474 18.74 3.474s13.134 5.684 13.134 12.695"/>
  <path fill="#F4900C" d="M32 16.169c0 7.011-5.882 12.695-13.134 12.695S5.732 23.18 5.732 16.169S11.614 3.474 18.866 3.474S32 9.158 32 16.169"/>
  <path fill="#662113" d="M23.366 9.672c-.692 0-1.254-.57-1.254-1.273V5.24c0-.703.561-1.273 1.254-1.273s1.254.57 1.254 1.273V8.4c0 .703-.562 1.272-1.254 1.272zm-3.008-2.545c-.692 0-1.254-.57-1.254-1.273V2.695c0-.703.561-1.273 1.254-1.273s1.254.57 1.254 1.273v3.159c0 .703-.562 1.273-1.254 1.273z"/>
</svg>
